<?xml version="1.0" encoding="UTF-8"?>
<svg xmlns="http://www.w3.org/2000/svg" width="44" height="26" viewBox="0 0 44 26" fill="none">
  <path d="M26.532 7.377h-9.095v16.248h9.095V7.377Z" fill="#FF5F00"></path>
  <path d="M18.022 15.5a10.266 10.266 0 0 1 1.043-4.517 10.326 10.326 0 0 1 2.927-3.607 10.446 10.446 0 0 0-10.965-1.17 10.373 10.373 0 0 0-4.268 3.812 10.29 10.29 0 0 0 0 10.964 10.373 10.373 0 0 0 4.268 3.812 10.446 10.446 0 0 0 10.965-1.17 10.327 10.327 0 0 1-2.927-3.607 10.267 10.267 0 0 1-1.043-4.517Z" fill="#EB001B"></path>
  <path d="M38.8 15.5c0 1.939-.549 3.839-1.583 5.482a10.372 10.372 0 0 1-4.268 3.812 10.445 10.445 0 0 1-10.965-1.17 10.346 10.346 0 0 0 2.925-3.608 10.285 10.285 0 0 0 0-9.032 10.346 10.346 0 0 0-2.925-3.608 10.445 10.445 0 0 1 10.965-1.17 10.373 10.373 0 0 1 4.268 3.812A10.288 10.288 0 0 1 38.8 15.5ZM37.822 21.905v-.333h.135v-.067h-.344v.067h.135v.333h.074Zm.667 0v-.401h-.105l-.121.276-.122-.276h-.105v.401h.074v-.303l.114.261h.077l.114-.261v.303h.074Z" fill="#F79E1B"></path>
</svg>
